<svg width="144" height="144" viewBox="0 0 144 144" fill="none" xmlns="http://www.w3.org/2000/svg">
<path d="M132 72C132 98.88 114.36 121.62 90 129.24V114C90 108.87 87.84 104.28 84.42 100.98C100.14 98.13 108 88.98 108 72C108 64.65 106.5 58.83 103.56 54.3C104.88 49.17 105.66 41.88 102 36C94.92 36 89.97 40.17 87.06 43.59C82.71 42.54 77.7 42 72 42C66.6 42 61.62 42.6 57.18 43.83C54.3 40.38 49.26 36 42 36C37.74 42.84 39.48 50.22 41.1 54.36C37.86 58.89 36 64.71 36 72C36 88.98 43.86 98.13 59.58 100.98C57.57 102.93 56.01 105.3 55.05 108H48C43.68 108 42 106.08 39.69 102.96C37.38 99.84 34.89 97.74 31.92 96.87C30.33 96.69 29.25 97.98 30.66 99.12C35.37 102.51 35.7 108.06 37.59 111.69C39.3 114.96 42.84 117 46.83 117H54V129.24C29.64 121.62 12 98.88 12 72C12 38.85 38.85 12 72 12C105.15 12 132 38.85 132 72Z" fill="#D9D9D9"/>
</svg>
